<svg xmlns="http://www.w3.org/2000/svg" version="1.1" xmlns:xlink="http://www.w3.org/1999/xlink" xmlns:svgjs="http://svgjs.dev/svgjs" width="1440" height="1000" preserveAspectRatio="none" viewBox="0 0 1440 1000"><g mask="url(&quot;#SvgjsMask1193&quot;)" fill="none"><rect width="1440" height="1000" x="0" y="0" fill="rgba(132, 239, 144, 1)"></rect><path d="M0,668.585C124.921,662.579,164.621,487.395,267.933,416.912C366.889,349.4,520.596,367.77,587.033,268.089C654.068,167.51,616.579,33.386,603.647,-86.791C590.266,-211.14,607.304,-363.135,510.577,-442.417C412.201,-523.05,263.658,-451.476,137.638,-468.751C36.002,-482.684,-54.469,-541.598,-156.767,-533.899C-275.002,-525,-414.356,-515.673,-486.735,-421.759C-559.236,-327.686,-486.476,-189.642,-511.556,-73.551C-539.472,55.667,-694.157,171.696,-641.105,292.783C-588.312,413.279,-398.512,376.972,-285.019,443.499C-178.42,505.985,-123.42,674.519,0,668.585" fill="#67eb75"></path><path d="M1440 1689.634C1572.619 1709.65 1713.408 1673.26 1822.877 1595.768 1930.299 1519.725 1998.835 1397.758 2032.174 1270.437 2062.5460000000003 1154.445 2019.899 1037.723 1999.9589999999998 919.49 1980.556 804.4449999999999 1983.365 682.655 1916.875 586.7860000000001 1846.801 485.75 1744.234 397.66499999999996 1623.163 376.20399999999995 1505.414 355.331 1401.976 446.475 1285.824 474.923 1162.215 505.197 1004.3140000000001 454.11699999999996 919.105 548.642 834.113 642.9259999999999 900.18 794.1659999999999 884.493 920.13 869.2 1042.927 780.036 1165.416 828.093 1279.449 876.199 1393.597 1021.938 1421.442 1124.83 1490.415 1230.2 1561.049 1314.567 1670.703 1440 1689.634" fill="#a2f3ab"></path></g><defs><mask id="SvgjsMask1193"><rect width="1440" height="1000" fill="#ffffff"></rect></mask></defs></svg>